<?xml version="1.0" standalone="no"?>
<!DOCTYPE svg PUBLIC "-//W3C//DTD SVG 1.1//EN" "http://www.w3.org/Graphics/SVG/1.1/DTD/svg11.dtd" >
<svg xmlns="http://www.w3.org/2000/svg" xmlns:xlink="http://www.w3.org/1999/xlink" version="1.1">
<metadata></metadata>
<defs>
<font id="aukamedium" horiz-adv-x="1495" >
<font-face units-per-em="2048" ascent="1638" descent="-410" />
<missing-glyph horiz-adv-x="500" />
<glyph horiz-adv-x="0" />
<glyph unicode="&#xd;" horiz-adv-x="681" />
<glyph unicode="&#x25fc;" horiz-adv-x="1024" d="M0 0z" />
<glyph unicode="&#xe000;" d="M72 -205v1700h1351v-1700h-204v1495h-943v-1495h-204z" />
<glyph unicode="&#xe001;" d="M72 -205v1700h1351v-1700h-204v1495h-1055v-1495h-92zM246 -205v1495h92v-1495h-92z" />
<glyph unicode="&#xe002;" horiz-adv-x="1441" d="M45 645l573 430v420h205v-420l574 -430l-574 -430v-420h-205v420zM387 645l231 -174v348zM823 471l232 174l-232 174v-348z" />
<glyph unicode="&#xe003;" horiz-adv-x="1441" d="M45 645l573 430v-860zM387 645l231 -174v348zM588 -205v1700h92v-1700h-92zM762 -205v1700h92v-1700h-92zM823 215v860l574 -430zM823 471l232 174l-232 174v-348z" />
<glyph unicode="&#xe004;" horiz-adv-x="1466" d="M57 1331v164h1352v-164l-573 -721v-815h-205v815zM342 1290l289 -362v362h-289zM836 928l288 362h-288v-362z" />
<glyph unicode="&#xe005;" horiz-adv-x="1466" d="M57 1331v164h574v-205h-289l289 -362v-318zM600 -205v1700h92v-1700h-92zM774 -205v1700h92v-1700h-92zM836 610v318l288 362h-288v205h573v-164z" />
<glyph unicode="&#xe006;" horiz-adv-x="1468" d="M57 -41l574 721v815h205v-815l573 -721v-164h-1352v164zM342 0h289v362zM836 0h288l-288 362v-362z" />
<glyph unicode="&#xe007;" horiz-adv-x="1466" d="M57 -41l574 721v-318l-289 -362h289v-205h-574v164zM600 -205v1700h92v-1700h-92zM774 -205v1700h92v-1700h-92zM836 0h288l-288 362v318l573 -721v-164h-573v205z" />
<glyph unicode="&#xe008;" horiz-adv-x="907" d="M72 -205v1700h204v-512h574v-205h-574v-266h574v-205h-574v-512h-204z" />
<glyph unicode="&#xe009;" horiz-adv-x="937" d="M72 -205v1700h92v-1700h-92zM246 -205v1700h92v-512h543v-205h-543v-266h543v-205h-543v-512h-92z" />
<glyph unicode="&#xe00a;" horiz-adv-x="1462" d="M55 610v164l574 721h205l573 -721v-164h-573v-815h-205v815h-574zM340 815h289v363zM834 815h288l-288 363v-363z" />
<glyph unicode="&#xe00b;" horiz-adv-x="1462" d="M55 610v164l574 721v-317l-289 -363h289v-205h-574zM598 -205v1700h92v-1700h-92zM772 -205v1700h92v-1700h-92zM834 610v205h288l-288 363v317l573 -721v-164h-573z" />
<glyph unicode="&#xe00c;" horiz-adv-x="911" d="M72 -205v1700h204v-747h451v-205h-451v-543h574v-205h-778z" />
<glyph unicode="&#xe00d;" horiz-adv-x="942" d="M72 -205v1700h92v-1700h-92zM246 -205v1700h92v-747h420v-205h-420v-543h543v-205h-635z" />
<glyph unicode="&#xe00e;" d="M72 -205v1700h204v-1495h943v1495h204v-1700h-1351z" />
<glyph unicode="&#xe00f;" d="M72 -205v1700h92v-1495h1055v1495h204v-1700h-1351zM246 0v1495h92v-1495h-92z" />
<glyph unicode="&#xe010;" horiz-adv-x="907" d="M57 -41l574 721v815h205v-1700h-779v164zM342 0h289v362z" />
<glyph unicode="&#xe011;" horiz-adv-x="937" d="M57 -41l574 721v-318l-289 -362h289v-205h-574v164zM600 -205v1700h92v-1700h-92zM774 -205v1700h92v-1700h-92z" />
<glyph unicode="&#xe012;" horiz-adv-x="894" d="M45 221l573 424l-573 424l573 426h205v-1700h-205zM389 221l229 -172v342zM389 1069l229 -170v342z" />
<glyph unicode="&#xe013;" horiz-adv-x="925" d="M45 221l573 -426v1700l-573 -426l573 -424zM389 221l229 170v-342zM389 1069l229 172v-342zM588 -205h92v1700h-92v-1700zM762 -205h92v1700h-92v-1700z" />
<glyph unicode="&#xe014;" horiz-adv-x="1484" d="M61 1290v205h676v-747h471v747h205v-1700h-205v748h-676v747h-471z" />
<glyph unicode="&#xe015;" horiz-adv-x="1484" d="M61 1290v205h676v-747h410v747h92v-1700h-92v748h-615v747h-471zM1321 -205v1700h92v-1700h-92z" />
<glyph unicode="&#xe016;" horiz-adv-x="1474" d="M61 1290v205h779v-1495h573v-205h-778v1495h-574z" />
<glyph unicode="&#xe017;" horiz-adv-x="1474" d="M61 1290v205h809v-1495h543v-205h-809v1495h-543zM696 0h82v1290h-82v-1290z" />
<glyph unicode="&#xe018;" horiz-adv-x="1474" d="M61 0h574v1495h778v-205h-573v-1495h-779v205z" />
<glyph unicode="&#xe019;" horiz-adv-x="1474" d="M61 0h543v1495h809v-205h-543v-1495h-809v205zM696 0h82v1290h-82v-1290z" />
<glyph unicode="&#xe01a;" horiz-adv-x="909" d="M59 307v205h574v266h-574v205h574v512h205v-1700h-205v512h-574z" />
<glyph unicode="&#xe01b;" horiz-adv-x="940" d="M59 307v205h543v266h-543v205h543v512h92v-1700h-92v512h-543zM776 -205v1700h92v-1700h-92z" />
<glyph unicode="&#xe01c;" horiz-adv-x="1232" d="M57 543v205h451v747h655v-205h-450v-1290h450v-205h-655v748h-451z" />
<glyph unicode="&#xe01d;" horiz-adv-x="1232" d="M57 543v205h420v747h92v-1700h-92v748h-420zM651 -205v1700h512v-205h-420v-1290h420v-205h-512z" />
<glyph unicode="&#xe01e;" horiz-adv-x="907" d="M72 -205v1700h778v-164l-574 -721v-815h-204zM276 928l289 362h-289v-362z" />
<glyph unicode="&#xe01f;" horiz-adv-x="937" d="M72 -205v1700h92v-1700h-92zM246 -205v1700h92v-1700h-92zM307 610v318l289 362h-289v205h574v-164z" />
<glyph unicode="&#xe020;" horiz-adv-x="894" d="M72 -205v1700h204l574 -426l-574 -424l574 -424l-574 -426h-204zM276 49l230 172l-230 170v-342zM276 899l230 170l-230 172v-342z" />
<glyph unicode="&#xe021;" horiz-adv-x="925" d="M72 -205v1700h92v-1700h-92zM246 -205v1700h92v-1700h-92zM307 49l230 172l-230 170v508l230 170l-230 172v254l574 -426l-574 -424l574 -424l-574 -426v254z" />
<glyph unicode="&#xe022;" horiz-adv-x="909" d="M72 -205v1700h204v-815l574 -721v-164h-778zM276 0h289l-289 362v-362z" />
<glyph unicode="&#xe023;" horiz-adv-x="937" d="M72 -205v1700h92v-1700h-92zM246 -205v1700h92v-1700h-92zM307 0h289l-289 362v318l574 -721v-164h-574v205z" />
<glyph unicode="&#xe024;" horiz-adv-x="894" d="M45 645l573 430v420h205v-1700h-205v420zM387 645l231 -174v348z" />
<glyph unicode="&#xe025;" horiz-adv-x="925" d="M45 645l573 430v-256l-231 -174l231 -174v-256zM588 -205v1700h92v-1700h-92zM762 -205v1700h92v-1700h-92z" />
<glyph unicode="&#xe026;" horiz-adv-x="911" d="M61 0h574v543h-451v205h451v747h205v-1700h-779v205z" />
<glyph unicode="&#xe027;" horiz-adv-x="942" d="M61 0h543v543h-420v205h420v747h92v-1700h-635v205zM778 -205v1700h92v-1700h-92z" />
<glyph unicode="&#xe028;" horiz-adv-x="1486" d="M68 0h573v610l-573 721v164h1351v-205h-573v-610l573 -721v-164h-1351v205zM352 1290l289 -362v362h-289zM846 0h289l-289 362v-362z" />
<glyph unicode="&#xe029;" horiz-adv-x="1486" d="M68 0h573v-205h-573v205zM68 1331v164h573v-205h-289l289 -362v-318zM610 -205v1700h92v-1700h-92zM784 -205v1700h93v-1700h-93zM846 0h289l-289 362v318l573 -721v-164h-573v205zM846 1290v205h573v-205h-573z" />
<glyph unicode="&#xe02a;" horiz-adv-x="1466" d="M57 -41l574 721v815h778v-164l-573 -721v-815h-779v164zM342 0h289v362zM836 928l288 362h-288v-362z" />
<glyph unicode="&#xe02b;" horiz-adv-x="1466" d="M57 -41l574 721v-318l-289 -362h289v-205h-574v164zM600 -205v1700h92v-1700h-92zM774 -205v1700h92v-1700h-92zM836 610v318l288 362h-288v205h573v-164z" />
<glyph unicode="&#xe02c;" horiz-adv-x="1466" d="M57 516v205h574v774h205v-774h573v-205l-573 -721h-205zM342 475l289 -362v362h-289zM836 113l288 362h-288v-362z" />
<glyph unicode="&#xe02d;" horiz-adv-x="1466" d="M57 516v205h574v-246h-289l289 -362v-318zM600 -205v1700h92v-1700h-92zM774 -205v1700h92v-1700h-92zM836 113l288 362h-288v246h573v-205l-573 -721v318z" />
<glyph unicode="&#xe02e;" horiz-adv-x="894" d="M72 -205v1700h204v-420l574 -430l-574 -430v-420h-204zM276 471l232 174l-232 174v-348z" />
<glyph unicode="&#xe02f;" horiz-adv-x="925" d="M72 -205v1700h92v-1700h-92zM246 -205v1700h92v-1700h-92zM307 215v256l232 174l-232 174v256l574 -430z" />
<glyph unicode="&#xe030;" horiz-adv-x="911" d="M61 1290v205h779v-1700h-205v748h-451v205h451v542h-574z" />
<glyph unicode="&#xe031;" horiz-adv-x="942" d="M61 1290v205h635v-1700h-92v748h-420v205h420v542h-543zM778 -205v1700h92v-1700h-92z" />
<glyph unicode="&#xe032;" horiz-adv-x="1232" d="M70 0h450v1290h-450v205h655v-747h451v-205h-451v-748h-655v205z" />
<glyph unicode="&#xe033;" horiz-adv-x="1232" d="M70 0h419v1290h-419v205h512v-1700h-512v205zM664 -205v1700h92v-747h420v-205h-420v-748h-92z" />
<glyph unicode="&#xe050;" d="M72 -41l1228 1536h123v-164l-1228 -1536h-123v164zM72 -41v1372h204v-1372h-204zM72 1331v164h123l1228 -1536v-164h-123zM195 0h1105v-205h-1105v205zM195 1290v205h1105v-205h-1105zM1219 -41v1372h204v-1372h-204z" />
<glyph unicode="&#xe051;" horiz-adv-x="1482" d="M66 -41l1228 1536h123v-164l-1229 -1536h-122v164z" />
<glyph unicode="&#xe052;" horiz-adv-x="1482" d="M66 1331v164h122l1229 -1536v-164h-123z" />
<glyph unicode="&#xe053;" d="M72 -41l1228 1536h123v-164l-1228 -1536h-123v164zM72 1331v164h123l1228 -1536v-164h-123z" />
<glyph unicode="&#xe054;" d="M72 -41l1228 1536h123v-164l-1228 -1536h-123v164zM72 1331v164h123l1228 -1536v-164h-123zM195 1290v205h1105v-205h-1105z" />
<glyph unicode="&#xe055;" d="M72 -41l1228 1536h123v-164l-1228 -1536h-123v164zM72 1331v164h123l1228 -1536v-164h-123zM195 0h1105v-205h-1105v205zM195 1290v205h1105v-205h-1105z" />
<glyph unicode="&#xe056;" d="M72 -41l1228 1536h123v-164l-1228 -1536h-123v164zM72 1331v164h123l1228 -1536v-164h-123zM195 0h1105v-205h-1105v205z" />
<glyph unicode="&#xe057;" d="M72 -41l1228 1536h123v-164l-1228 -1536h-123v164zM72 -41v1372h204v-1372h-204zM72 1331v164h123l1228 -1536v-164h-123z" />
<glyph unicode="&#xe058;" d="M72 -41l1228 1536h123v-164l-1228 -1536h-123v164zM72 -41v1372h204v-1372h-204zM72 1331v164h123l1228 -1536v-164h-123zM1219 -41v1372h204v-1372h-204z" />
<glyph unicode="&#xe059;" d="M72 -41l1228 1536h123v-164l-1228 -1536h-123v164zM72 1331v164h123l1228 -1536v-164h-123zM1219 -41v1372h204v-1372h-204z" />
<glyph unicode="&#xe060;" horiz-adv-x="696" d="M246 543v205h205v-205h-205z" />
<glyph unicode="&#xe061;" horiz-adv-x="1105" d="M246 133v205h614v-205h-614zM451 543v205h204v-205h-204z" />
<glyph unicode="&#xe062;" horiz-adv-x="696" d="M246 543v205h205v-205h-205zM246 952v410h205v-410h-205z" />
<glyph unicode="&#xe063;" horiz-adv-x="1105" d="M246 952v205h614v-205h-614zM451 543v205h204v-205h-204z" />
<glyph unicode="&#xe100;" horiz-adv-x="2048" d="M143 -205v1700h205l1557 -850l-1557 -850h-205zM143 645l1557 850h205v-1700h-205zM348 0l1182 645l-1182 645v-1290zM518 645l1182 -645v1290zM922 -205v1700h204v-1700h-204z" />
<glyph unicode="&#xe101;" horiz-adv-x="905" d="M55 -41l574 721v-70l-574 721v164h123l451 -567v567h205v-1700h-205v567l-451 -567h-123v164z" />
<glyph unicode="&#xe102;" horiz-adv-x="1462" d="M55 -41l574 721v-70l-574 721v164h123l451 -567v567h205v-567l450 567h123v-164l-573 -721v70l573 -721v-164h-123l-450 567v-567h-205v567l-451 -567h-123v164z" />
<glyph unicode="&#xe103;" horiz-adv-x="905" d="M72 -205v1700h204v-567l451 567h123v-164l-574 -721v70l574 -721v-164h-123l-451 567v-567h-204z" />
<glyph unicode="&#xe104;" horiz-adv-x="1224" d="M59 543v205h451v747h205v-747h450v-205h-450v-748h-205v748h-451z" />
<glyph unicode="&#xe105;" horiz-adv-x="1216" d="M55 307v205h451v266h-451v205h451v512h205v-512h450v-205h-450v-266h450v-205h-450v-512h-205v512h-451z" />
<glyph unicode="&#xe106;" horiz-adv-x="1204" d="M47 317l1038 377l72 -192l-1040 -377zM47 788l1038 377l72 -192l-1040 -377zM500 -205v1700h205v-1700h-205z" />
<glyph unicode="&#xe107;" horiz-adv-x="1269" d="M61 543v205h1147v-205h-1147zM201 356l723 723l145 -145l-723 -723z" />
<glyph unicode="&#xe108;" horiz-adv-x="1269" d="M61 543v205h1147v-205h-1147zM201 934l145 145l723 -723l-145 -145z" />
<glyph unicode="&#xe109;" horiz-adv-x="2048" d="M0 829z" />
</font>
</defs>
</svg>
